<?xml version="1.0" encoding="iso-8859-1"?>
<!-- Generator: Adobe Illustrator 18.0.0, SVG Export Plug-In . SVG Version: 6.00 Build 0)  -->
<!DOCTYPE svg PUBLIC "-//W3C//DTD SVG 1.1//EN" "http://www.w3.org/Graphics/SVG/1.1/DTD/svg11.dtd">
<svg version="1.1" id="Capa_1" xmlns="http://www.w3.org/2000/svg" xmlns:xlink="http://www.w3.org/1999/xlink" x="0px" y="0px"
	 viewBox="0 0 398.766 398.766" style="enable-background:new 0 0 398.766 398.766;" xml:space="preserve">
<path d="M324.692,129.216c-0.852-0.924-2.052-1.45-3.309-1.45h-15.5v-34c0-1.344-0.602-2.619-1.639-3.473
	c-1.038-0.855-2.405-1.202-3.723-0.943l-23.309,4.548V39.266c0-1.439-0.688-2.791-1.852-3.638c-1.164-0.847-2.661-1.085-4.03-0.645
	l-41,13.23c-1.858,0.6-3.118,2.33-3.118,4.283v18.125l-6.997-1.707V17.266c0-1.9-1.194-3.596-2.983-4.237L181.566,0.262
	c-1.376-0.491-2.91-0.286-4.107,0.558c-1.197,0.843-1.909,2.215-1.909,3.679v89.173l-9.336,2.277V63.766
	c0-2.094-1.444-3.911-3.484-4.384l-41-9.5c-1.336-0.31-2.741,0.007-3.815,0.861c-1.074,0.854-1.7,2.151-1.7,3.523v22.306
	l-18.111,5.38c-1.909,0.567-3.219,2.322-3.219,4.314v41.5h-17.5c-1.257,0-2.457,0.526-3.309,1.45
	c-0.852,0.924-1.278,2.163-1.177,3.415l21.32,262c0.19,2.336,2.142,4.135,4.485,4.135h201.359c2.344,0,4.295-1.799,4.485-4.135
	l21.32-262C325.97,131.379,325.543,130.14,324.692,129.216z M296.883,127.766h-32v-22.293l32-6.244V127.766z M236.213,55.773
	l32-10.326v50.207l-8.691,1.696c-2.113,0.412-3.639,2.264-3.639,4.416v26h-5.67v-48c0-2.075-1.418-3.88-3.434-4.372l-10.566-2.577
	V55.773z M241.213,127.766h-32V75.496l32,7.805V127.766z M184.549,10.89l26.667,9.545V66.72l-5.436-1.326
	c-1.342-0.328-2.76-0.02-3.846,0.833c-1.087,0.853-1.721,2.158-1.721,3.539v58h-5.66v-33c0-1.381-0.634-2.686-1.721-3.539
	c-1.086-0.853-2.505-1.161-3.846-0.833l-4.438,1.082V10.89z M185.553,127.766h-32V108.3l32-7.805V127.766z M125.213,59.928l32,7.414
	v30.801l-9.227,2.25c-2.016,0.492-3.434,2.297-3.434,4.372v23h-7.004v-51.5c0-1.42-0.671-2.757-1.809-3.606
	c-1.139-0.85-2.61-1.11-3.973-0.707l-6.555,1.947V59.928z M103.883,89.624l24.666-7.327v45.469h-24.666V89.624z M89.086,220.607
	H309.68l-0.244,2.999H89.331L89.086,220.607z M95.891,304.226h206.984l-0.26,3.199H96.151L95.891,304.226z M95.159,295.226
	l-5.096-62.62h218.64l-5.096,62.62H95.159z M295.914,389.766H102.852l-5.968-73.341h204.999L295.914,389.766z M310.412,211.607
	H88.354l-6.09-74.84h234.238L310.412,211.607z"/>
<g>
</svg>
