<?xml version="1.0" encoding="iso-8859-1"?>
<!-- Generator: Adobe Illustrator 19.0.0, SVG Export Plug-In . SVG Version: 6.00 Build 0)  -->
<svg version="1.1" id="Capa_1" xmlns="http://www.w3.org/2000/svg" xmlns:xlink="http://www.w3.org/1999/xlink" x="0px" y="0px"
	 viewBox="0 0 470.001 470.001" style="enable-background:new 0 0 470.001 470.001;" xml:space="preserve">
<g>
	<path d="M92.007,239.751c0,4.273,3.477,7.75,7.75,7.75s7.75-3.477,7.75-7.75s-3.477-7.75-7.75-7.75S92.007,235.478,92.007,239.751z
		"/>
	<path d="M62.007,219.751c0,4.273,3.477,7.75,7.75,7.75s7.75-3.477,7.75-7.75s-3.477-7.75-7.75-7.75S62.007,215.478,62.007,219.751z
		"/>
	<path d="M328.007,239.751c0-4.273-3.477-7.75-7.75-7.75s-7.75,3.477-7.75,7.75s3.477,7.75,7.75,7.75
		S328.007,244.024,328.007,239.751z"/>
	<path d="M461.953,46.946c10.721-10.722,10.721-28.169,0-38.892C456.759,2.861,449.853,0,442.507,0s-14.252,2.861-19.446,8.056
		c-2.917,2.918-69.596,69.597-111.408,111.408c-30.394-19.292-65.399-29.463-101.646-29.463c-27.49,0-54.02,5.751-78.852,17.094
		c-3.768,1.722-5.427,6.171-3.706,9.938c1.722,3.768,6.173,5.428,9.938,3.706c22.862-10.443,47.295-15.738,72.619-15.738
		c32.256,0,63.44,8.742,90.754,25.354c-8.035,8.035-14.449,14.449-18.321,18.321c-4.725-2.612-9.601-4.977-14.616-7.08
		c-3.818-1.599-8.215,0.197-9.816,4.018c-1.602,3.819,0.197,8.215,4.018,9.816c23.896,10.019,44.349,26.64,59.144,48.066
		c1.456,2.107,3.797,3.239,6.179,3.239c1.47,0,2.954-0.432,4.255-1.329c3.408-2.354,4.264-7.025,1.91-10.434
		c-2.659-3.851-5.5-7.546-8.478-11.109l17.791-17.791c25.63,29.832,40.35,67.12,42.015,106.427H35.188
		c2.318-53.725,29.407-103.836,73.494-135.199c3.375-2.401,4.165-7.084,1.764-10.459c-2.4-3.375-7.083-4.167-10.459-1.764
		c-48.035,34.171-77.485,88.85-79.812,147.422H7.507c-4.143,0-7.5,3.357-7.5,7.5s3.357,7.5,7.5,7.5H20.94l23.465,175.991
		c0.497,3.726,3.676,6.509,7.435,6.509h316.334c3.759,0,6.938-2.783,7.435-6.509l23.465-175.991h13.433c4.143,0,7.5-3.357,7.5-7.5
		s-3.357-7.5-7.5-7.5h-12.658c-1.689-43.294-17.964-84.362-46.393-117.057L461.953,46.946z M361.608,455.001H58.406l-22.333-167.5
		H383.94L361.608,455.001z M295.516,156.815C323.24,129.091,429.96,22.37,433.668,18.662c2.36-2.361,5.5-3.662,8.839-3.662
		s6.479,1.301,8.839,3.661c4.874,4.874,4.874,12.806,0,17.679L314.847,172.838C308.851,166.964,302.394,161.6,295.516,156.815z"/>
</g>
</svg>
