<?xml version="1.0" encoding="iso-8859-1"?>
<!-- Generator: Adobe Illustrator 19.0.0, SVG Export Plug-In . SVG Version: 6.00 Build 0)  -->
<svg version="1.1" id="Capa_1" xmlns="http://www.w3.org/2000/svg" xmlns:xlink="http://www.w3.org/1999/xlink" x="0px" y="0px"
	 viewBox="0 0 470 470" style="enable-background:new 0 0 470 470;" xml:space="preserve">
<g>
	<path d="M440,148.506h-15v-22.5c0-15.163-12.337-27.5-27.5-27.5h-8.87L369.85,6.008C369.141,2.512,366.066,0,362.5,0h-20
		c-3.566,0-6.641,2.512-7.35,6.008l-18.78,92.498h-8.87c-15.163,0-27.5,12.337-27.5,27.5v22.5h-15c-4.143,0-7.5,3.357-7.5,7.5V447.5
		c0,12.406,10.094,22.5,22.5,22.5h145c12.406,0,22.5-10.094,22.5-22.5V156.006C447.5,151.863,444.143,148.506,440,148.506z
		 M348.63,15h7.74l16.955,83.506h-41.649L348.63,15z M295,126.006c0-6.893,5.607-12.5,12.5-12.5h90c6.893,0,12.5,5.607,12.5,12.5
		v22.5H295V126.006z M432.5,447.5c0,4.136-3.364,7.5-7.5,7.5H280c-4.136,0-7.5-3.364-7.5-7.5V163.506h160V447.5z"/>
	<path d="M410,178.506c-9.818,0-15.16,4.273-19.061,7.394c-3.202,2.561-5.134,4.106-9.691,4.106s-6.489-1.546-9.691-4.106
		c-3.9-3.12-9.242-7.394-19.061-7.394c-9.817,0-15.158,4.273-19.059,7.394c-3.2,2.561-5.133,4.106-9.688,4.106
		c-4.557,0-6.489-1.546-9.689-4.106c-3.9-3.12-9.242-7.394-19.06-7.394c-4.143,0-7.5,3.357-7.5,7.5V432.5c0,4.143,3.357,7.5,7.5,7.5
		h115c4.143,0,7.5-3.357,7.5-7.5v-50.373c0-4.143-3.357-7.5-7.5-7.5s-7.5,3.357-7.5,7.5V425h-100V195.915
		c0.691,0.499,1.401,1.067,2.188,1.697c3.9,3.12,9.242,7.394,19.061,7.394s15.159-4.273,19.06-7.394
		c3.2-2.561,5.132-4.106,9.688-4.106c4.558,0,6.489,1.546,9.691,4.106c3.9,3.12,9.242,7.394,19.061,7.394s15.16-4.273,19.061-7.394
		c0.788-0.63,1.499-1.198,2.191-1.698v156.213c0,4.143,3.357,7.5,7.5,7.5s7.5-3.357,7.5-7.5V186.006
		C417.5,181.863,414.143,178.506,410,178.506z"/>
	<path d="M205,148.506h-15v-22.5c0-15.163-12.337-27.5-27.5-27.5h-8.87L134.85,6.008C134.141,2.512,131.066,0,127.5,0h-20
		c-3.566,0-6.641,2.512-7.35,6.008L81.37,98.506H72.5c-15.163,0-27.5,12.337-27.5,27.5v22.5H30c-4.143,0-7.5,3.357-7.5,7.5V447.5
		c0,12.406,10.094,22.5,22.5,22.5h145c12.406,0,22.5-10.094,22.5-22.5V156.006C212.5,151.863,209.143,148.506,205,148.506z
		 M113.63,15h7.74l16.955,83.506H96.675L113.63,15z M60,126.006c0-6.893,5.607-12.5,12.5-12.5h90c6.893,0,12.5,5.607,12.5,12.5v22.5
		H60V126.006z M197.5,447.5c0,4.136-3.364,7.5-7.5,7.5H45c-4.136,0-7.5-3.364-7.5-7.5V163.506h160V447.5z"/>
	<path d="M175,294.253c-9.818,0-15.16,4.273-19.061,7.394c-3.202,2.561-5.134,4.106-9.691,4.106s-6.489-1.546-9.691-4.106
		c-3.9-3.12-9.242-7.394-19.061-7.394c-9.817,0-15.158,4.273-19.059,7.394c-3.2,2.561-5.133,4.106-9.688,4.106
		c-4.557,0-6.489-1.546-9.689-4.106c-3.9-3.12-9.242-7.394-19.06-7.394c-4.143,0-7.5,3.357-7.5,7.5V432.5c0,4.143,3.357,7.5,7.5,7.5
		h115c4.143,0,7.5-3.357,7.5-7.5v-50.373c0-4.143-3.357-7.5-7.5-7.5s-7.5,3.357-7.5,7.5V425h-100V311.662
		c0.691,0.499,1.401,1.067,2.188,1.697c3.9,3.12,9.242,7.394,19.061,7.394s15.159-4.273,19.06-7.394
		c3.2-2.561,5.132-4.106,9.688-4.106c4.558,0,6.489,1.546,9.691,4.106c3.9,3.12,9.242,7.394,19.061,7.394s15.16-4.273,19.061-7.394
		c0.788-0.63,1.499-1.199,2.191-1.698v40.466c0,4.143,3.357,7.5,7.5,7.5s7.5-3.357,7.5-7.5v-50.374
		C182.5,297.61,179.143,294.253,175,294.253z"/>
</g>
</svg>
