<?xml version="1.0" encoding="iso-8859-1"?>
<svg  version="1.1" id="Capa_1" xmlns="http://www.w3.org/2000/svg" xmlns:xlink="http://www.w3.org/1999/xlink" x="0px" y="0px"
    viewBox="0 0 535.934 535.934" width="50" height="50" style="enable-background:new 0 0 535.934 535.934;" xml:space="preserve">
        <g id="hotdogSVG" fill="none">
            <path class="hd1" d="M93.132,453.962c-2.873,0-5.758-1.097-7.951-3.29c-6.372-6.383-9.882-14.872-9.871-23.887
                c0.011-8.971,3.532-17.416,9.893-23.778c12.722-12.678,34.921-12.7,47.643,0.022c4.376,4.343,11.538,4.343,15.903-0.022
                c4.354-4.365,4.354-11.494-0.022-15.903c-6.361-6.317-9.882-14.784-9.882-23.778c0-9.015,3.521-17.482,9.915-23.843
                c12.657-12.678,34.877-12.7,47.621,0.022c4.365,4.343,11.516,4.343,15.881,0c4.376-4.387,4.376-11.494,0-15.881
                c-13.128-13.139-13.128-34.526-0.011-47.665c12.7-12.722,34.899-12.744,47.654,0c4.255,4.255,11.626,4.255,15.859,0
                c2.15-2.128,3.323-4.957,3.312-7.951c0-2.983-1.163-5.791-3.279-7.897c-13.128-13.172-13.117-34.537-0.033-47.654
                c12.799-12.766,34.932-12.744,47.654-0.011c2.128,2.128,4.957,3.312,7.962,3.312h0.022c2.983-0.011,5.791-1.174,7.897-3.29
                c4.387-4.398,4.387-11.538,0-15.947c-13.073-13.095-13.073-34.449,0-47.588c6.361-6.361,14.806-9.882,23.778-9.893
                c0.022,0,0.044,0,0.044,0c8.993,0,17.46,3.51,23.843,9.871c4.255,4.277,11.626,4.266,15.881,0.011
                c2.128-2.128,3.29-4.957,3.29-7.951c0-2.983-1.185-5.78-3.29-7.886c-13.117-13.238-13.117-34.614-0.022-47.709
                c13.139-13.139,34.57-13.117,47.665,0.022c4.387,4.398,4.387,11.505,0,15.892c-4.387,4.365-11.494,4.376-15.881-0.011
                c-4.387-4.409-11.516-4.398-15.903-0.011c-4.365,4.365-4.343,11.527,0.044,15.947c6.317,6.273,9.827,14.718,9.849,23.712
                c0.022,9.004-3.488,17.482-9.871,23.876c-12.722,12.744-34.921,12.744-47.643,0c-2.128-2.128-4.957-3.301-7.962-3.301l0,0
                c-2.983,0.011-5.791,1.174-7.897,3.29c-4.365,4.387-4.387,11.505-0.022,15.87c13.095,13.183,13.095,34.559,0,47.665
                c-6.317,6.361-14.784,9.871-23.778,9.893c0,0-0.022,0-0.044,0c-8.993,0-17.46-3.521-23.843-9.893
                c-4.255-4.255-11.626-4.288-15.881,0.011c-4.354,4.365-4.354,11.494,0.011,15.881c6.35,6.317,9.86,14.773,9.882,23.778
                c0,9.015-3.51,17.482-9.904,23.843c-12.678,12.766-34.91,12.766-47.632,0c-4.201-4.233-11.637-4.255-15.859,0
                c-4.387,4.387-4.387,11.516,0,15.903c6.35,6.361,9.86,14.828,9.86,23.822c0,8.993-3.51,17.46-9.871,23.822
                c-13.15,13.139-34.515,13.117-47.643,0c-4.233-4.255-11.637-4.255-15.87,0c-2.161,2.128-3.323,4.935-3.323,7.941
                c0,2.983,1.163,5.791,3.29,7.897c13.139,13.183,13.139,34.57,0.033,47.687c-13.15,13.095-34.515,13.117-47.665,0.022
                c-4.277-4.299-11.659-4.277-15.892-0.022c-2.128,2.128-3.29,4.935-3.301,7.919c0,3.005,1.174,5.835,3.312,7.962
                c4.376,4.387,4.376,11.494-0.011,15.881C98.879,452.865,96.005,453.962,93.132,453.962z"/>
            <path class="hd2" d="M109.002,505.466c-20.136,0-40.262-7.677-55.595-22.988c-14.85-14.828-23.032-34.57-23.032-55.584
                s8.182-40.755,23.032-55.627l0,0L371.06,53.636c30.665-30.621,80.524-30.621,111.189,0c30.621,30.665,30.621,80.535,0,111.189
                L164.574,482.478C149.253,497.788,129.127,505.466,109.002,505.466z M69.288,387.148c-10.606,10.617-16.451,24.743-16.451,39.746
                s5.846,29.108,16.451,39.703c21.891,21.891,57.514,21.891,79.405,0l317.675-317.653c21.869-21.891,21.869-57.525,0-79.427
                c-21.891-21.869-57.536-21.88-79.427,0.011L69.288,387.148z"/>
            <path class="hd3" d="M197.488,535.934c-0.208,0-0.406,0-0.603,0c-28.406-0.197-55.507-12.678-78.363-36.149l16.078-15.662
                c18.579,19.062,40.163,29.196,62.427,29.349c19.873-0.855,40.174-8.27,54.947-23.054l238.193-238.237
                c25.16-25.181,38.584-71.168-6.493-117.912l16.188-15.596c52.732,54.717,41.106,114.457,6.186,149.389L267.856,506.299
                C249.014,525.142,223.393,535.934,197.488,535.934z"/>
            <path class="hd4" d="M43.898,420.796c-2.917,0-5.824-1.119-8.028-3.378c-52.907-54.07-40.339-115.313-6.273-149.345L267.845,29.825
                c41.6-41.677,97.512-39.56,149.499,5.626c4.672,4.069,5.177,11.165,1.097,15.848c-4.058,4.683-11.165,5.166-15.837,1.108
                c-42.686-37.147-86.051-39.593-118.866-6.701L45.478,283.965c-27.386,27.353-36.006,74.36,6.449,117.748
                c4.332,4.431,4.255,11.538-0.175,15.881C49.569,419.721,46.728,420.796,43.898,420.796z"/>
        </g>
    </svg>
